<svg id="Layer_1" data-name="Layer 1" xmlns="http://www.w3.org/2000/svg" viewBox="0 0 72 37.95">
    <defs>
        <style>.cls-1{fill:#049fd9;}</style>
    </defs>
    <title>logo</title>
    <rect class="cls-1" x="20.36" y="25.21" width="3.16" height="12.51"/>
    <path class="cls-1"
          d="M409.76,316.59a5.51,5.51,0,0,0-2.66-.67,3.34,3.34,0,1,0,0,6.68,5.58,5.58,0,0,0,2.66-.66v3.36a10.08,10.08,0,0,1-2.88.45,6.48,6.48,0,1,1,0-13,9.65,9.65,0,0,1,2.88.45v3.36Z"
          transform="translate(-360.79 -287.79)"/>
    <path class="cls-1"
          d="M376.81,316.59a5.48,5.48,0,0,0-2.65-.67,3.34,3.34,0,1,0,0,6.68,5.54,5.54,0,0,0,2.65-.66v3.36a10,10,0,0,1-2.88.45,6.48,6.48,0,1,1,0-13,9.62,9.62,0,0,1,2.88.45v3.36Z"
          transform="translate(-360.79 -287.79)"/>
    <path class="cls-1"
          d="M426.31,319.26a6.61,6.61,0,1,1-6.61-6.48A6.42,6.42,0,0,1,426.31,319.26ZM419.69,316a3.29,3.29,0,1,0,3.27,3.29A3.23,3.23,0,0,0,419.69,316Z"
          transform="translate(-360.79 -287.79)"/>
    <path class="cls-1"
          d="M396.28,315.85a10.83,10.83,0,0,0-2.47-.38c-1.27,0-2,.42-2,1,0,0.76.93,1,1.45,1.19l0.87,0.28a3.76,3.76,0,0,1,3,3.58c0,3.14-2.76,4.2-5.18,4.2a18.83,18.83,0,0,1-3.41-.34v-2.88a11.83,11.83,0,0,0,3,.46c1.57,0,2.29-.46,2.29-1.17s-0.62-1-1.41-1.25l-0.67-.22c-1.76-.56-3.22-1.59-3.22-3.66,0-2.34,1.75-3.91,4.66-3.91a13.48,13.48,0,0,1,3.08.4v2.67Z"
          transform="translate(-360.79 -287.79)"/>
    <path class="cls-1" d="M363.92,299.56a1.57,1.57,0,0,0-3.13,0v3.28a1.57,1.57,0,0,0,3.13,0v-3.28Z"
          transform="translate(-360.79 -287.79)"/>
    <path class="cls-1" d="M372.53,295.25a1.57,1.57,0,0,0-3.13,0v7.59a1.57,1.57,0,0,0,3.13,0v-7.59Z"
          transform="translate(-360.79 -287.79)"/>
    <path class="cls-1" d="M381.14,289.35a1.57,1.57,0,0,0-3.13,0V306a1.57,1.57,0,0,0,3.13,0V289.35Z"
          transform="translate(-360.79 -287.79)"/>
    <path class="cls-1" d="M389.75,295.25a1.57,1.57,0,0,0-3.13,0v7.59a1.57,1.57,0,0,0,3.13,0v-7.59Z"
          transform="translate(-360.79 -287.79)"/>
    <path class="cls-1" d="M398.35,299.56a1.56,1.56,0,0,0-3.12,0v3.28a1.56,1.56,0,1,0,3.12,0v-3.28Z"
          transform="translate(-360.79 -287.79)"/>
    <path class="cls-1" d="M407,295.25a1.56,1.56,0,0,0-3.12,0v7.59a1.56,1.56,0,1,0,3.12,0v-7.59Z" transform="translate(-360.79 -287.79)"/>
    <path class="cls-1" d="M415.58,289.35a1.56,1.56,0,0,0-3.12,0V306a1.56,1.56,0,1,0,3.12,0V289.35Z"
          transform="translate(-360.79 -287.79)"/>
    <path class="cls-1" d="M424.19,295.25a1.57,1.57,0,0,0-3.14,0v7.59a1.57,1.57,0,0,0,3.14,0v-7.59Z"
          transform="translate(-360.79 -287.79)"/>
    <path class="cls-1" d="M432.79,299.56a1.56,1.56,0,0,0-3.13,0v3.28a1.56,1.56,0,1,0,3.13,0v-3.28Z"
          transform="translate(-360.79 -287.79)"/>
    <path class="cls-1" d="M431,323.87v0.2h-0.56v1.45h-0.23v-1.45h-0.56v-0.2H431Z" transform="translate(-360.79 -287.79)"/>
    <path class="cls-1" d="M431.1,323.87h0.36l0.49,1.35h0l0.48-1.35h0.35v1.65h-0.24v-1.35h0l-0.5,1.35h-0.22l-0.49-1.35h0v1.35H431.1v-1.65Z"
          transform="translate(-360.79 -287.79)"/>
</svg>